<svg viewBox="0 0 24 24" fill="none" stroke="#16151C" xmlns="http://www.w3.org/2000/svg">
<path d="M9.99998 18.1765H5.44436C4.5665 18.1765 4.14072 17.1028 4.77998 16.5012C5.55853 15.7684 5.99998 14.7467 5.99998 13.6776V11C5.99998 7.6863 8.68628 5 12 5M9.99998 18.1765V19C9.99998 20.1046 10.8954 21 12 21C13.1046 21 14 20.1046 14 19V18.1765M9.99998 18.1765H14M14 18.1765H18.5556C19.4335 18.1765 19.8592 17.1028 19.22 16.5012C18.4414 15.7684 18 14.7467 18 13.6776V11C18 7.68629 15.3137 5 12 5M12 5V3.5" stroke-width="1.5" stroke-linecap="round" stroke-linejoin="round"/>
</svg>
