<svg width="28" height="29" viewBox="0 0 28 29" fill="none" xmlns="http://www.w3.org/2000/svg">
<path d="M11.6666 21.7059H6.35173C5.32756 21.7059 4.83082 20.4533 5.57662 19.7514C6.48493 18.8965 6.99996 17.7045 6.99996 16.4572V13.3333C6.99996 9.46735 10.134 6.33334 14 6.33334M11.6666 21.7059V22.6667C11.6666 23.9553 12.7113 25 14 25C15.2886 25 16.3333 23.9553 16.3333 22.6667V21.7059M11.6666 21.7059H16.3333M16.3333 21.7059H21.6482C22.6724 21.7059 23.1691 20.4533 22.4233 19.7514C21.515 18.8965 21 17.7045 21 16.4572V13.3333C21 9.46735 17.866 6.33334 14 6.33334M14 6.33334V4.58334" stroke="#16151C" stroke-width="1.5" stroke-linecap="round" stroke-linejoin="round"/>
</svg>
