<svg viewBox="0 0 24 24" fill="none" stroke="#363538" xmlns="http://www.w3.org/2000/svg">
<path d="M8.00002 6L8.54417 4.36754C8.8164 3.55086 9.58067 3 10.4415 3H13.5585C14.4194 3 15.1836 3.55086 15.4559 4.36754L16 6M8.00002 6H5.61805C4.87467 6 4.39117 6.78231 4.72362 7.44721L5.21265 8.42527C5.40208 8.80413 5.50913 9.2188 5.52677 9.64201L5.88022 18.1249C5.94717 19.7318 7.26935 21 8.87762 21H15.1224C16.7307 21 18.0529 19.7318 18.1198 18.1249L18.4733 9.64202C18.4909 9.21881 18.598 8.80413 18.7874 8.42527L19.2764 7.44721C19.6089 6.78231 19.1254 6 18.382 6H16M8.00002 6H16M14.44 16.5L14.69 10.5M9.56008 16.5L9.31008 10.5" stroke-width="1.5" stroke-linecap="round" stroke-linejoin="round"/>
</svg>
