<svg width="31" height="30" viewBox="0 0 31 30" fill="none" xmlns="http://www.w3.org/2000/svg">
<path d="M10.8336 7.5L11.5138 5.45943C11.854 4.43858 12.8094 3.75 13.8855 3.75H17.7817C18.8577 3.75 19.8131 4.43858 20.1534 5.45943L20.8336 7.5M10.8336 7.5H7.8561C6.92688 7.5 6.32251 8.47789 6.73807 9.30902L7.34935 10.5316C7.58614 11.0052 7.71996 11.5235 7.742 12.0525L8.18382 22.6561C8.26751 24.6647 9.92022 26.25 11.9306 26.25H19.7366C21.7469 26.25 23.3996 24.6647 23.4833 22.6561L23.9251 12.0525C23.9472 11.5235 24.081 11.0052 24.3178 10.5316L24.9291 9.30902C25.3446 8.47789 24.7402 7.5 23.811 7.5H20.8336M10.8336 7.5H20.8336M18.8835 20.625L19.196 13.125M12.7836 20.625L12.4711 13.125" stroke="#16151C" stroke-width="1.5" stroke-linecap="round" stroke-linejoin="round"/>
</svg>
