<svg viewBox="0 0 24 24" fill="none" xmlns="http://www.w3.org/2000/svg">
<path d="M12.3174 9.01659C13.6923 9.16116 14.7905 10.2344 14.9732 11.5976M9.76389 10C9.28885 10.5308 9 11.2316 9 12C9 13.6569 10.3431 15 12 15C12.7684 15 13.4692 14.7111 14 14.2361M6.5 6.72189C4.37097 8.15996 3 10.2501 3 12C3 15 7.02944 19 12 19C13.9572 19 15.7684 18.3798 17.2452 17.4448M8.97011 5.5C9.91688 5.18297 10.9369 5 12 5C16.9706 5 21 9 21 12C21 13.1141 20.4443 14.3661 19.491 15.5M20 20L4 4" stroke-linecap="round" stroke-linejoin="round"/>
</svg>
