<svg width="30" height="30" viewBox="0 0 30 30" fill="none" xmlns="http://www.w3.org/2000/svg">
<path d="M15.3967 11.2707C17.1153 11.4514 18.4881 12.793 18.7166 14.497M12.2049 12.5C11.6111 13.1634 11.25 14.0396 11.25 15C11.25 17.0711 12.9289 18.75 15 18.75C15.9604 18.75 16.8366 18.3889 17.5 17.7951M8.125 8.40236C5.46371 10.2 3.75 12.8126 3.75 15C3.75 18.75 8.7868 23.75 15 23.75C17.4465 23.75 19.7105 22.9748 21.5565 21.8059M11.2126 6.875C12.3961 6.47872 13.6711 6.25 15 6.25C21.2132 6.25 26.25 11.25 26.25 15C26.25 16.3926 25.5553 17.9577 24.3637 19.375M25 25L5 5" stroke="#16151C" stroke-width="1.5" stroke-linecap="round" stroke-linejoin="round"/>
</svg>
