<svg width="24" height="24" viewBox="0 0 24 24" fill="none" xmlns="http://www.w3.org/2000/svg">
<path d="M18 3H6C4.89543 3 4 3.89543 4 5V5.26015C4 5.73757 4.17078 6.19925 4.48149 6.56173L9.51851 12.4383C9.82922 12.8008 10 13.2624 10 13.7398V19.5858C10 20.4767 11.0771 20.9229 11.7071 20.2929L13.4142 18.5858C13.7893 18.2107 14 17.702 14 17.1716V13.7398C14 13.2624 14.1708 12.8008 14.4815 12.4383L19.5185 6.56173C19.8292 6.19925 20 5.73757 20 5.26015V5C20 3.89543 19.1046 3 18 3Z" stroke="#363538" stroke-width="1.5" stroke-linecap="round" stroke-linejoin="round"/>
</svg>
