<svg width="24" height="25" viewBox="0 0 24 25" fill="none" xmlns="http://www.w3.org/2000/svg">
<path d="M18 3.5H6C4.89543 3.5 4 4.39543 4 5.5V5.76015C4 6.23757 4.17078 6.69925 4.48149 7.06173L9.51851 12.9383C9.82922 13.3008 10 13.7624 10 14.2398V20.0858C10 20.9767 11.0771 21.4229 11.7071 20.7929L13.4142 19.0858C13.7893 18.7107 14 18.202 14 17.6716V14.2398C14 13.7624 14.1708 13.3008 14.4815 12.9383L19.5185 7.06173C19.8292 6.69925 20 6.23757 20 5.76015V5.5C20 4.39543 19.1046 3.5 18 3.5Z" stroke="#16151C" stroke-width="1.5" stroke-linecap="round" stroke-linejoin="round"/>
</svg>
