<svg width="101" height="100" viewBox="0 0 101 100" fill="none" xmlns="http://www.w3.org/2000/svg">
<path d="M21.3333 83.3333L36.8498 60.9896C40.3689 55.9221 47.983 56.3027 50.9792 61.6959L52.1808 63.8587M38 83.3333L63.7529 47.9232C67.3096 43.0326 74.7275 43.4397 77.7277 48.6901L88 66.6667M25.5 83.3333H75.5C82.4036 83.3333 88 77.7369 88 70.8333V29.1667C88 22.2631 82.4036 16.6667 75.5 16.6667H25.5C18.5964 16.6667 13 22.2631 13 29.1667V70.8333C13 77.7369 18.5964 83.3333 25.5 83.3333ZM35.9167 32.2917C35.9167 34.0176 34.5176 35.4167 32.7917 35.4167C31.0658 35.4167 29.6667 34.0176 29.6667 32.2917C29.6667 30.5658 31.0658 29.1667 32.7917 29.1667C34.5176 29.1667 35.9167 30.5658 35.9167 32.2917Z" stroke="#A2A1A8" stroke-width="3" stroke-linejoin="round"/>
</svg>
