<svg width="24" height="24" viewBox="0 0 24 24" fill="none" xmlns="http://www.w3.org/2000/svg">
<path d="M5 20L8.72395 14.6375C9.56854 13.4213 11.3959 13.5126 12.115 14.807L12.4034 15.3261M9 20L15.1807 11.5016C16.0343 10.3278 17.8146 10.4255 18.5346 11.6856L21 16M6 20H18C19.6569 20 21 18.6569 21 17V7C21 5.34315 19.6569 4 18 4H6C4.34315 4 3 5.34315 3 7V17C3 18.6569 4.34315 20 6 20ZM8.5 7.75C8.5 8.16421 8.16421 8.5 7.75 8.5C7.33579 8.5 7 8.16421 7 7.75C7 7.33579 7.33579 7 7.75 7C8.16421 7 8.5 7.33579 8.5 7.75Z" stroke="#363538" stroke-width="1.5" stroke-linejoin="round"/>
</svg>
