<svg viewBox="0 0 24 24" stroke="#16151C" fill="none" xmlns="http://www.w3.org/2000/svg">
<path d="M13 3H11C9.89541 3 8.99998 3.89543 8.99998 5C8.99998 5.80171 8.1321 6.30278 7.4378 5.90192C6.48121 5.34964 5.25803 5.67739 4.70575 6.63397L3.70575 8.36602C3.15346 9.32261 3.48121 10.5458 4.4378 11.0981C5.13209 11.4989 5.13207 12.5011 4.43777 12.9019C3.48119 13.4542 3.15344 14.6774 3.70572 15.634L4.70572 17.366C5.25801 18.3226 6.48119 18.6504 7.43777 18.0981C8.13208 17.6972 8.99998 18.1983 8.99998 19C8.99998 20.1046 9.89541 21 11 21H13C14.1045 21 15 20.1046 15 19C15 18.1983 15.8679 17.6972 16.5622 18.0981C17.5187 18.6504 18.7419 18.3226 19.2942 17.366L20.2942 15.634C20.8465 14.6774 20.5187 13.4542 19.5622 12.9019C18.8679 12.5011 18.8678 11.4989 19.5621 11.0981C20.5187 10.5458 20.8465 9.3226 20.2942 8.36602L19.2942 6.63397C18.7419 5.67738 17.5187 5.34963 16.5621 5.90191C15.8678 6.30276 15 5.8017 15 5C15 3.89543 14.1045 3 13 3Z" stroke-width="1.5" stroke-linecap="round" stroke-linejoin="round"/>
<path d="M14 12C14 13.1046 13.1045 14 12 14C10.8954 14 9.99998 13.1046 9.99998 12C9.99998 10.8954 10.8954 10 12 10C13.1045 10 14 10.8954 14 12Z" stroke-width="1.5" stroke-linecap="round" stroke-linejoin="round"/>
</svg>
