<svg width="30" height="30" viewBox="0 0 30 30" fill="none" xmlns="http://www.w3.org/2000/svg">
<path d="M16.25 3.75H13.75C12.3693 3.75 11.25 4.86929 11.25 6.25C11.25 7.25214 10.1652 7.87847 9.29732 7.3774C8.10159 6.68705 6.57262 7.09674 5.88226 8.29247L4.63226 10.4575C3.9419 11.6533 4.35159 13.1822 5.54732 13.8726C6.41519 14.3737 6.41516 15.6263 5.54729 16.1274C4.35156 16.8177 3.94187 18.3467 4.63223 19.5425L5.88223 21.7075C6.57259 22.9033 8.10156 23.3129 9.29729 22.6226C10.1652 22.1215 11.25 22.7478 11.25 23.75C11.25 25.1307 12.3693 26.25 13.75 26.25H16.25C17.6308 26.25 18.75 25.1307 18.75 23.75C18.75 22.7479 19.8349 22.1215 20.7028 22.6226C21.8985 23.313 23.4275 22.9033 24.1178 21.7075L25.3678 19.5425C26.0582 18.3467 25.6485 16.8178 24.4528 16.1274C23.5849 15.6263 23.5849 14.3737 24.4527 13.8726C25.6485 13.1822 26.0582 11.6533 25.3678 10.4575L24.1178 8.29246C23.4274 7.09673 21.8985 6.68704 20.7027 7.37739C19.8349 7.87845 18.75 7.25212 18.75 6.25C18.75 4.86929 17.6308 3.75 16.25 3.75Z" stroke="#A2A1A8" stroke-width="2" stroke-linecap="round" stroke-linejoin="round"/>
<path d="M17.5 15C17.5 16.3807 16.3808 17.5 15 17.5C13.6193 17.5 12.5 16.3807 12.5 15C12.5 13.6193 13.6193 12.5 15 12.5C16.3808 12.5 17.5 13.6193 17.5 15Z" stroke="#A2A1A8" stroke-width="2" stroke-linecap="round" stroke-linejoin="round"/>
</svg>
