<svg fill="none" xmlns="http://www.w3.org/2000/svg" viewBox="0 0 24 24">
  <path d="M17.3334 12V14M17.3334 14V16M17.3334 14H15.3334M17.3334 14H19.3334M12.3334 14H7.33337C5.67652 14 4.33337 15.3431 4.33337 17V18C4.33337 19.6569 5.67652 21 7.33337 21H15.3334C16.2219 21 17.0202 20.6137 17.5695 20M15.3334 7C15.3334 4.79086 13.5425 3 11.3334 3C9.12423 3 7.33337 4.79086 7.33337 7C7.33337 9.20914 9.12423 11 11.3334 11C13.5425 11 15.3334 9.20914 15.3334 7Z" stroke-width="1.5" stroke-linecap="round" stroke-linejoin="round"/>
</svg>

