<svg width="30" height="30" viewBox="0 0 30 30" fill="none" xmlns="http://www.w3.org/2000/svg">
<path d="M23.529 5.20798C24.4377 6.11331 25 7.36599 25 8.75001C25 10.134 24.4377 11.3867 23.529 12.292M6.47499 5.20798C5.56634 6.11331 5.00401 7.36599 5.00401 8.75001C5.00401 10.134 5.56634 11.3867 6.47499 12.292M26.5451 18.75C27.1389 19.4134 27.5 20.2896 27.5 21.25V22.5C27.5 23.4605 27.1389 24.3366 26.5451 25.0001M3.45001 18.75C2.85619 19.4134 2.49512 20.2896 2.49512 21.25V22.5C2.49512 23.4605 2.85619 24.3366 3.45001 25.0001M20 8.75C20 5.98858 17.7614 3.75 15 3.75C12.2386 3.75 9.99999 5.98858 9.99999 8.75C9.99999 11.5114 12.2386 13.75 15 13.75C17.7614 13.75 20 11.5114 20 8.75ZM6.24999 22.5V21.25C6.24999 19.1789 7.92893 17.5 9.99999 17.5H20C22.0711 17.5 23.75 19.1789 23.75 21.25V22.5C23.75 24.5711 22.0711 26.25 20 26.25H10C7.92893 26.25 6.24999 24.5711 6.24999 22.5Z" stroke-width="2" stroke-linecap="round" stroke-linejoin="round"/>
</svg>
