<svg fill="none" xmlns="http://www.w3.org/2000/svg" viewBox="0 0 24 24">
<path d="M22.6667 10.5H16.6667M14.4167 6.375C14.4167 8.23896 12.9057 9.75 11.0417 9.75C9.17779 9.75 7.66675 8.23896 7.66675 6.375C7.66675 4.51104 9.17779 3 11.0417 3C12.9057 3 14.4167 4.51104 14.4167 6.375ZM4.66767 19.2343C4.66706 19.198 4.66675 19.1615 4.66675 19.125C4.66675 15.6042 7.52093 12.75 11.0417 12.75C14.5626 12.75 17.4167 15.6042 17.4167 19.125V19.1276C17.4167 19.1632 17.4164 19.1988 17.4158 19.2343C15.5541 20.3552 13.3732 21 11.0417 21C8.71027 21 6.52939 20.3552 4.66767 19.2343Z"  stroke-width="1.5" stroke-linecap="round" stroke-linejoin="round"/>
</svg>
