<svg viewBox="0 0 24 24" fill="none" stroke="#16151C" xmlns="http://www.w3.org/2000/svg">
<path d="M18.8232 4.16638C19.5502 4.89065 20 5.89279 20 7.00001C20 8.10722 19.5502 9.10937 18.8232 9.83363M5.17999 4.16638C4.45307 4.89065 4.00321 5.89279 4.00321 7.00001C4.00321 8.10722 4.45307 9.10937 5.17999 9.83363M21.2361 15C21.7111 15.5308 22 16.2317 22 17V18C22 18.7684 21.7111 19.4693 21.2361 20M2.76001 15C2.28495 15.5308 1.99609 16.2317 1.99609 17V18C1.99609 18.7684 2.28495 19.4693 2.76001 20M16 7C16 4.79086 14.2091 3 12 3C9.79086 3 8 4.79086 8 7C8 9.20914 9.79086 11 12 11C14.2091 11 16 9.20914 16 7ZM5 18V17C5 15.3431 6.34314 14 8 14H16C17.6568 14 19 15.3431 19 17V18C19 19.6569 17.6569 21 16 21H8C6.34314 21 5 19.6569 5 18Z" stroke-width="1.5" stroke-linecap="round" stroke-linejoin="round"/>
</svg>
